# This file uses centimeters as units for non-parametric coordinates.

mtllib safety_pin.mtl
g default
v 70.221898 -23.691708 7.194174
v 70.224391 -23.840076 7.133176
v 70.222040 -23.988155 7.194876
v 70.216221 -24.049203 7.343129
v 70.210344 -23.987459 7.491092
v 70.207850 -23.839092 7.552089
v 70.210202 -23.691012 7.490390
v 70.216020 -23.629964 7.342136
v 66.031258 -23.694109 7.028709
v 66.033751 -23.842477 6.967712
v 66.031400 -23.990556 7.029411
v 66.025581 -24.051604 7.177665
v 66.019704 -23.989860 7.325627
v 66.017210 -23.841492 7.386624
v 66.019561 -23.693413 7.324925
v 66.025380 -23.632365 7.176671
v 61.840617 -23.696510 6.863244
v 61.843111 -23.844877 6.802247
v 61.840760 -23.992957 6.863946
v 61.834941 -24.054005 7.012200
v 61.829063 -23.992260 7.160162
v 61.826570 -23.843893 7.221159
v 61.828921 -23.695814 7.159460
v 61.834740 -23.634765 7.011206
v 58.106857 -25.027462 6.721895
v 58.235832 -25.086807 6.665683
v 58.359963 -25.145864 6.732167
v 58.406535 -25.170037 6.882403
v 58.348267 -25.145168 7.028383
v 58.219291 -25.085823 7.084596
v 58.095161 -25.026765 7.018111
v 58.048588 -25.002592 6.867876
v 58.716442 -26.874249 6.776985
v 58.773585 -26.763593 6.726922
v 58.826624 -26.652693 6.780815
v 58.844489 -26.606512 6.907092
v 58.816714 -26.652103 7.031784
v 58.759571 -26.762759 7.081847
v 58.706531 -26.873659 7.027954
v 58.688668 -26.919842 6.901677
v 60.447382 -27.022859 6.808376
v 60.374648 -26.893230 6.755435
v 60.295701 -26.775519 6.824546
v 60.256796 -26.738676 6.975228
v 60.280713 -26.804284 7.119211
v 60.353451 -26.933913 7.172154
v 60.432393 -27.051625 7.103042
v 60.471302 -27.088468 6.952360
v 61.279369 -25.529698 7.405973
v 61.148276 -25.567454 7.339442
v 61.012319 -25.604927 7.395605
v 60.951168 -25.620160 7.541567
v 61.000629 -25.604228 7.691821
v 61.131732 -25.566469 7.758354
v 61.267674 -25.529002 7.702189
v 61.328830 -25.513761 7.556229
v 58.480788 -23.946095 7.418085
v 58.473141 -24.094066 7.356688
v 58.460642 -24.241745 7.417984
v 58.450622 -24.302637 7.566072
v 58.448948 -24.241052 7.714202
v 58.456598 -24.093082 7.775601
v 58.469094 -23.945399 7.714302
v 58.479113 -23.884509 7.566215
v 60.367561 -24.358921 7.749799
v 60.332591 -24.403120 7.600182
v 60.379256 -24.359617 7.453582
v 60.480203 -24.253903 7.395876
v 60.576294 -24.147904 7.460865
v 60.611261 -24.103702 7.610482
v 60.564600 -24.147210 7.757081
v 60.463659 -24.252919 7.814788
v 59.593898 -23.739939 7.074266
v 59.655844 -23.869871 7.138461
v 59.722635 -24.000093 7.079961
v 59.755145 -24.054321 6.933032
v 59.734331 -24.000790 6.783745
v 59.672385 -23.870856 6.719548
v 59.605596 -23.740636 6.778050
v 59.573084 -23.686407 6.924978
v 58.156243 -26.096804 7.029023
v 58.272381 -26.031103 7.094899
v 58.393357 -25.965689 7.038077
v 58.448313 -25.938883 6.891844
v 58.405053 -25.966386 6.741861
v 58.288921 -26.032088 6.675986
v 58.167940 -26.097501 6.732807
v 58.112985 -26.124308 6.879040
v 59.553882 -27.156001 7.083125
v 59.560482 -27.019116 7.144509
v 59.571922 -26.882519 7.083195
v 59.581507 -26.826227 6.935101
v 59.583618 -26.883214 6.786980
v 59.577022 -27.020100 6.725596
v 59.565578 -27.156697 6.786909
v 59.555994 -27.212990 6.935003
v 61.057682 -26.483370 7.457912
v 60.940531 -26.455037 7.537885
v 60.827631 -26.369206 7.509444
v 60.785109 -26.276158 7.389245
v 60.837884 -26.230398 7.247702
v 60.955034 -26.258732 7.167728
v 61.067935 -26.344561 7.196171
v 61.110454 -26.437607 7.316371
v 58.831775 -24.380132 7.045677
v 58.873282 -24.426925 6.899086
v 58.843471 -24.380828 6.749461
v 58.759807 -24.268843 6.684450
v 58.671298 -24.156570 6.742136
v 58.629790 -24.109777 6.888727
v 58.659601 -24.155874 7.038352
v 58.743266 -24.267859 7.103363
v 60.887999 -24.810135 7.784631
v 60.779055 -24.883344 7.719057
v 60.738769 -24.913960 7.569198
v 60.790746 -24.884042 7.422840
v 60.904542 -24.811120 7.365718
v 61.013477 -24.737914 7.431292
v 61.053761 -24.707294 7.581151
v 61.001783 -24.737219 7.727508
v 60.194863 -23.990497 7.754443
v 60.120889 -24.109004 7.813246
v 60.051759 -24.227803 7.749351
v 60.027962 -24.277303 7.600187
v 60.063454 -24.228498 7.453134
v 60.137433 -24.109988 7.394333
v 60.206557 -23.991191 7.458227
v 60.230352 -23.941689 7.607390
v 59.752028 -23.895862 7.751693
v 59.710771 -24.029895 7.811825
v 59.674359 -24.164218 7.749258
v 59.664117 -24.220149 7.600644
v 59.686053 -24.164912 7.453040
v 59.727315 -24.030880 7.392912
v 59.763722 -23.896557 7.455477
v 59.773963 -23.840624 7.604090
v 58.484908 -23.944789 7.714763
v 58.472057 -24.092303 7.776048
v 58.464053 -24.240105 7.714634
v 58.465580 -24.301620 7.566498
v 58.475747 -24.240798 7.418417
v 58.488601 -24.093287 7.357135
v 58.496602 -23.945485 7.418546
v 58.495074 -23.883968 7.566682
v 70.182925 -23.839106 7.551105
v 70.185419 -23.987473 7.490108
v 70.191296 -24.049218 7.342145
v 70.197115 -23.988170 7.193892
v 70.199466 -23.840090 7.132192
v 70.196973 -23.691723 7.193190
v 70.191095 -23.629978 7.341152
v 70.185277 -23.691027 7.489406
vt 0.303654 0.857643
vt 0.300000 0.856129
vt 0.296346 0.857643
vt 0.294833 0.861297
vt 0.296346 0.864950
vt 0.300000 0.866464
vt 0.303654 0.864950
vt 0.305167 0.861297
vt 0.486585 0.789893
vt 0.487491 0.794527
vt 0.488397 0.799162
vt 0.489304 0.803797
vt 0.490210 0.808431
vt 0.491116 0.813066
vt 0.492022 0.817701
vt 0.492928 0.822335
vt 0.493834 0.826970
vt 0.432240 0.790121
vt 0.433146 0.794756
vt 0.434052 0.799390
vt 0.434958 0.804025
vt 0.435864 0.808660
vt 0.436770 0.813294
vt 0.437676 0.817929
vt 0.438582 0.822564
vt 0.439488 0.827198
vt 0.377894 0.790349
vt 0.378800 0.794984
vt 0.379706 0.799618
vt 0.380612 0.804253
vt 0.381518 0.808888
vt 0.382425 0.813522
vt 0.383331 0.818157
vt 0.384237 0.822792
vt 0.385143 0.827426
vt 0.323548 0.790577
vt 0.324454 0.795212
vt 0.325361 0.799847
vt 0.326267 0.804481
vt 0.327173 0.809116
vt 0.328079 0.813751
vt 0.328985 0.818385
vt 0.329891 0.823020
vt 0.330797 0.827655
vt 0.269203 0.790806
vt 0.270109 0.795440
vt 0.271015 0.800075
vt 0.271921 0.804710
vt 0.272827 0.809344
vt 0.273733 0.813979
vt 0.274639 0.818614
vt 0.275545 0.823248
vt 0.276452 0.827883
vt 0.214857 0.791034
vt 0.215763 0.795668
vt 0.216669 0.800303
vt 0.217575 0.804938
vt 0.218482 0.809573
vt 0.219388 0.814207
vt 0.220294 0.818842
vt 0.221200 0.823476
vt 0.222106 0.828111
vt 0.160511 0.791262
vt 0.161418 0.795897
vt 0.162324 0.800532
vt 0.163230 0.805166
vt 0.164136 0.809801
vt 0.165042 0.814435
vt 0.165948 0.819070
vt 0.166854 0.823705
vt 0.167760 0.828339
vt 0.106166 0.791490
vt 0.107072 0.796125
vt 0.107978 0.800760
vt 0.108884 0.805394
vt 0.109790 0.810029
vt 0.110696 0.814664
vt 0.111603 0.819298
vt 0.112509 0.823933
vt 0.113415 0.828568
vt 0.303654 0.857229
vt 0.300000 0.855716
vt 0.296346 0.857229
vt 0.294833 0.860883
vt 0.296346 0.864537
vt 0.300000 0.866050
vt 0.303654 0.864537
vt 0.305167 0.860883
vt 0.132051 0.809936
vt 0.131145 0.805301
vt 0.130239 0.800666
vt 0.129333 0.796032
vt 0.135675 0.828474
vt 0.128427 0.791397
vt 0.134769 0.823839
vt 0.133863 0.819205
vt 0.132957 0.814570
vt 0.358284 0.818262
vt 0.357377 0.813628
vt 0.356471 0.808993
vt 0.355565 0.804358
vt 0.354659 0.799724
vt 0.353753 0.795089
vt 0.360096 0.827532
vt 0.352847 0.790454
vt 0.359190 0.822897
vt 0.303034 0.818494
vt 0.302127 0.813860
vt 0.301221 0.809225
vt 0.300315 0.804590
vt 0.299409 0.799956
vt 0.298503 0.795321
vt 0.304846 0.827764
vt 0.297597 0.790686
vt 0.303940 0.823129
vt 0.247323 0.818728
vt 0.246417 0.814094
vt 0.245511 0.809459
vt 0.244605 0.804824
vt 0.243698 0.800190
vt 0.242792 0.795555
vt 0.249135 0.827998
vt 0.241886 0.790920
vt 0.248229 0.823363
vt 0.193653 0.818954
vt 0.192747 0.814319
vt 0.191841 0.809684
vt 0.190935 0.805050
vt 0.190029 0.800415
vt 0.189123 0.795780
vt 0.195466 0.828223
vt 0.188217 0.791146
vt 0.194559 0.823588
vt 0.340615 0.809060
vt 0.339709 0.804425
vt 0.338803 0.799790
vt 0.337897 0.795156
vt 0.344240 0.827598
vt 0.336991 0.790521
vt 0.343334 0.822964
vt 0.342427 0.818329
vt 0.341521 0.813694
vt 0.150969 0.814494
vt 0.150063 0.809860
vt 0.149156 0.805225
vt 0.148250 0.800591
vt 0.147344 0.795956
vt 0.153687 0.828398
vt 0.146438 0.791321
vt 0.152781 0.823764
vt 0.151875 0.819129
vt 0.127076 0.819233
vt 0.126170 0.814599
vt 0.125264 0.809964
vt 0.124357 0.805329
vt 0.123451 0.800695
vt 0.122545 0.796060
vt 0.128888 0.828503
vt 0.121639 0.791425
vt 0.127982 0.823868
vt 0.118841 0.819268
vt 0.117935 0.814633
vt 0.117029 0.809999
vt 0.116123 0.805364
vt 0.115217 0.800729
vt 0.114311 0.796095
vt 0.120654 0.828537
vt 0.113405 0.791460
vt 0.119748 0.823903
vt 0.111692 0.819298
vt 0.110786 0.814663
vt 0.109879 0.810029
vt 0.108973 0.805394
vt 0.108067 0.800759
vt 0.107161 0.796125
vt 0.113504 0.828567
vt 0.106255 0.791490
vt 0.112598 0.823933
vt 0.490793 0.813067
vt 0.489886 0.808433
vt 0.488980 0.803798
vt 0.488074 0.799163
vt 0.487168 0.794529
vt 0.493511 0.826971
vt 0.486262 0.789894
vt 0.492605 0.822337
vt 0.491699 0.817702
vn 0.999528 0.028532 0.011352
vn 1.000000 0.000479 -0.000182
vn 0.039455 -0.002348 -0.999219
vn 0.027560 0.705444 -0.708229
vn 0.999555 -0.027520 0.011484
vn 0.028238 -0.708765 -0.704879
vn 0.998455 -0.039063 0.039517
vn 0.000479 -0.999997 0.002369
vn 0.997344 -0.027388 0.067494
vn -0.027560 -0.705444 0.708229
vn 0.996872 0.000665 0.079027
vn -0.039455 0.002348 0.999219
vn 0.997317 0.028664 0.067361
vn -0.028238 0.708765 0.704879
vn 0.998417 0.040207 0.039329
vn -0.000479 0.999997 -0.002369
vn 0.027560 0.705444 -0.708229
vn 0.039455 -0.002348 -0.999219
vn 0.037853 0.044158 -0.998307
vn 0.020752 0.741842 -0.670254
vn 0.028238 -0.708765 -0.704879
vn 0.028808 -0.705834 -0.707791
vn 0.000479 -0.999997 0.002369
vn 0.001146 -0.999994 -0.003140
vn -0.027560 -0.705444 0.708229
vn -0.026342 -0.708217 0.705503
vn -0.039455 0.002348 0.999219
vn -0.040094 0.048624 0.998012
vn -0.028238 0.708765 0.704879
vn -0.031521 0.749324 0.661453
vn -0.000479 0.999997 -0.002369
vn -0.006621 0.999957 -0.006558
vn -0.001900 0.005256 -0.999984
vn -0.070427 0.705407 -0.705295
vn 0.118922 -0.690022 -0.713951
vn 0.143159 -0.989518 0.018938
vn 0.064156 -0.673573 0.736331
vn -0.079867 0.010413 0.996751
vn -0.125050 0.699475 0.703631
vn -0.113490 0.993539 0.000290
vn -0.686340 0.197548 -0.699938
vn 0.002301 -0.070577 -0.997504
vn -0.012439 0.032523 -0.999394
vn -0.688693 -0.252269 -0.679751
vn 0.738251 -0.182083 -0.649485
vn 0.738676 0.186485 -0.647751
vn 0.970971 -0.236152 0.038048
vn 0.966017 0.255553 0.038783
vn 0.686671 -0.173222 0.706030
vn 0.683059 0.194644 0.703949
vn -0.076536 -0.059822 0.995271
vn -0.090014 0.042622 0.995028
vn -0.740008 0.202959 0.641245
vn -0.738506 -0.247831 0.627048
vn -0.958380 0.282803 -0.039134
vn -0.940338 -0.338397 -0.035385
vn -0.418091 -0.595584 -0.685915
vn -0.062193 0.033867 -0.997489
vn -0.007313 -0.297577 -0.954670
vn -0.055424 -0.865502 -0.497830
vn 0.488372 0.555890 -0.672665
vn 0.062785 0.602878 -0.795359
vn 0.680430 0.732361 0.025732
vn 0.081297 0.996650 0.008929
vn 0.436339 0.556225 0.707264
vn 0.010025 0.589076 0.808016
vn -0.137305 0.036558 0.989854
vn -0.075781 -0.336529 0.938619
vn -0.469075 -0.592936 0.654520
vn -0.098447 -0.870424 0.482359
vn -0.544043 -0.838839 -0.019141
vn -0.087416 -0.996162 -0.004378
vn 0.379004 -0.480552 -0.790838
vn 0.242995 0.229546 -0.942477
vn 0.113833 0.378927 -0.918399
vn 0.736132 -0.120756 -0.665979
vn -0.170205 0.772518 -0.611756
vn -0.643429 0.566873 -0.514445
vn -0.510774 0.857920 0.055521
vn -0.887422 0.434758 0.153192
vn -0.513186 0.466504 0.720426
vn -0.641522 0.077287 0.763202
vn -0.055159 -0.230249 0.971567
vn -0.019240 -0.286654 0.957841
vn 0.324660 -0.786091 0.525983
vn 0.559432 -0.586251 0.585957
vn 0.422303 -0.889126 -0.176396
vn 0.873955 -0.480573 -0.072473
vn 0.763363 0.106785 -0.637082
vn -0.005384 0.110137 -0.993902
vn 0.052575 0.019991 -0.998417
vn 0.662400 0.372847 -0.649778
vn -0.759251 0.094944 -0.643835
vn -0.637892 -0.282291 -0.716523
vn -0.999480 -0.025844 0.019262
vn -0.902106 -0.429772 -0.038744
vn -0.701257 -0.144630 0.698084
vn -0.658922 -0.353688 0.663872
vn 0.048178 -0.186943 0.981189
vn 0.035885 -0.069896 0.996909
vn 0.728958 -0.049051 0.682799
vn 0.652861 0.314718 0.689003
vn 0.998208 0.043594 0.041001
vn 0.882027 0.470213 0.030447
vn -0.994216 0.087116 -0.062818
vn -0.995931 0.061409 -0.065964
vn -0.997507 0.050808 -0.048974
vn -0.998011 0.049871 -0.038570
vn -0.998199 0.052474 -0.029082
vn -0.997954 0.061504 -0.017451
vn -0.996301 0.084555 -0.015294
vn -0.994443 0.098246 -0.037837
vn -0.697510 -0.716329 -0.018775
vn -0.453428 -0.526859 0.718904
vn -0.207214 -0.726043 0.655685
vn -0.290002 -0.956550 -0.030179
vn -0.474029 -0.465148 -0.747619
vn -0.198012 -0.681571 -0.704451
vn 0.121851 0.069630 -0.990103
vn 0.044299 0.006382 -0.998998
vn 0.522134 0.587523 -0.618218
vn 0.219162 0.704243 -0.675285
vn 0.644353 0.764129 0.030264
vn 0.279656 0.960099 -0.001110
vn 0.502537 0.548172 0.668554
vn 0.208421 0.707048 0.675754
vn 0.123137 -0.006754 0.992367
vn 0.024897 -0.022144 0.999445
vn -0.485013 0.554790 0.675996
vn -0.111049 -0.049432 0.992585
vn 0.441279 -0.539013 0.717452
vn 0.683524 -0.729363 0.028703
vn 0.496375 -0.542292 -0.677888
vn -0.032448 -0.054111 -0.998008
vn -0.430099 0.551522 -0.714730
vn -0.607321 0.794036 -0.025847
vn 0.007697 0.871543 0.490259
vn -0.015777 0.269713 0.962811
vn -0.011736 -0.626241 0.779542
vn 0.011977 -0.999887 -0.009098
vn 0.018762 -0.603577 -0.797084
vn 0.029904 0.296511 -0.954561
vn 0.041843 0.840923 -0.539535
vn 0.029698 0.998418 -0.047752
vn -0.047318 0.591747 0.804734
vn -0.010442 -0.289140 0.957230
vn 0.038214 -0.838539 0.543500
vn 0.063600 -0.996588 0.052605
vn 0.070375 -0.882974 -0.464117
vn 0.042856 -0.245678 -0.968404
vn -0.004151 0.658791 -0.752314
vn -0.037538 0.998207 0.046620
s 1
g pCylinder11
usemtl blinn1SG
f 1/9/1 2/10/2 149/183/3 150/185/4
f 2/10/2 3/11/5 148/182/6 149/183/3
f 3/11/5 4/12/7 147/181/8 148/182/6
f 4/12/7 5/13/9 146/180/10 147/181/8
f 5/13/9 6/14/11 145/179/12 146/180/10
f 6/14/11 7/15/13 152/187/14 145/179/12
f 7/15/13 8/16/15 151/186/16 152/187/14
f 8/16/15 1/17/1 150/184/4 151/186/16
f 9/18/17 10/19/18 18/28/19 17/27/20
f 10/19/18 11/20/21 19/29/22 18/28/19
f 11/20/21 12/21/23 20/30/24 19/29/22
f 12/21/23 13/22/25 21/31/26 20/30/24
f 13/22/25 14/23/27 22/32/28 21/31/26
f 14/23/27 15/24/29 23/33/30 22/32/28
f 15/24/29 16/25/31 24/34/32 23/33/30
f 16/25/31 9/26/17 17/35/20 24/34/32
f 17/27/20 18/28/19 78/103/33 79/105/34
f 18/28/19 19/29/22 77/102/35 78/103/33
f 19/29/22 20/30/24 76/101/36 77/102/35
f 20/30/24 21/31/26 75/100/37 76/101/36
f 21/31/26 22/32/28 74/99/38 75/100/37
f 22/32/28 23/33/30 73/98/39 74/99/38
f 23/33/30 24/34/32 80/106/40 73/98/39
f 24/34/32 17/35/20 79/104/34 80/106/40
f 25/36/41 26/37/42 86/112/43 87/114/44
f 26/37/42 27/38/45 85/111/46 86/112/43
f 27/38/45 28/39/47 84/110/48 85/111/46
f 28/39/47 29/40/49 83/109/50 84/110/48
f 29/40/49 30/41/51 82/108/52 83/109/50
f 30/41/51 31/42/53 81/107/54 82/108/52
f 31/42/53 32/43/55 88/115/56 81/107/54
f 32/43/55 25/44/41 87/113/44 88/115/56
f 33/45/57 34/46/58 94/121/59 95/123/60
f 34/46/58 35/47/61 93/120/62 94/121/59
f 35/47/61 36/48/63 92/119/64 93/120/62
f 36/48/63 37/49/65 91/118/66 92/119/64
f 37/49/65 38/50/67 90/117/68 91/118/66
f 38/50/67 39/51/69 89/116/70 90/117/68
f 39/51/69 40/52/71 96/124/72 89/116/70
f 40/52/71 33/53/57 95/122/60 96/124/72
f 41/54/73 42/55/74 102/130/75 103/132/76
f 42/55/74 43/56/77 101/129/78 102/130/75
f 43/56/77 44/57/79 100/128/80 101/129/78
f 44/57/79 45/58/81 99/127/82 100/128/80
f 45/58/81 46/59/83 98/126/84 99/127/82
f 46/59/83 47/60/85 97/125/86 98/126/84
f 47/60/85 48/61/87 104/133/88 97/125/86
f 48/61/87 41/62/73 103/131/76 104/133/88
f 49/63/89 50/64/90 117/147/91 118/149/92
f 50/64/90 51/65/93 116/146/94 117/147/91
f 51/65/93 52/66/95 115/145/96 116/146/94
f 52/66/95 53/67/97 114/144/98 115/145/96
f 53/67/97 54/68/99 113/143/100 114/144/98
f 54/68/99 55/69/101 120/151/102 113/143/100
f 55/69/101 56/70/103 119/150/104 120/151/102
f 56/70/103 49/71/89 118/148/92 119/150/104
f 1/1/1 8/8/15 7/7/13 6/6/11 5/5/9 4/4/7 3/3/5 2/2/2
f 57/87/105 58/86/106 59/85/107 60/84/108 61/83/109 62/82/110 63/81/111 64/88/112
f 66/90/113 65/89/114 123/154/115 124/155/116
f 67/91/117 66/90/113 124/155/116 125/156/118
f 68/92/119 67/91/117 125/156/118 126/157/120
f 69/94/121 68/92/119 126/157/120 127/159/122
f 70/95/123 69/93/121 127/158/122 128/160/124
f 71/96/125 70/95/123 128/160/124 121/152/126
f 72/97/127 71/96/125 121/152/126 122/153/128
f 65/89/114 72/97/127 122/153/128 123/154/115
f 74/99/38 73/98/39 111/141/129 112/142/130
f 75/100/37 74/99/38 112/142/130 105/134/131
f 76/101/36 75/100/37 105/134/131 106/135/132
f 77/102/35 76/101/36 106/135/132 107/136/133
f 78/103/33 77/102/35 107/136/133 108/137/134
f 79/105/34 78/103/33 108/137/134 109/139/135
f 80/106/40 79/104/34 109/138/135 110/140/136
f 73/98/39 80/106/40 110/140/136 111/141/129
f 82/108/52 81/107/54 39/51/69 38/50/67
f 83/109/50 82/108/52 38/50/67 37/49/65
f 84/110/48 83/109/50 37/49/65 36/48/63
f 85/111/46 84/110/48 36/48/63 35/47/61
f 86/112/43 85/111/46 35/47/61 34/46/58
f 87/114/44 86/112/43 34/46/58 33/45/57
f 88/115/56 87/113/44 33/53/57 40/52/71
f 81/107/54 88/115/56 40/52/71 39/51/69
f 90/117/68 89/116/70 47/60/85 46/59/83
f 91/118/66 90/117/68 46/59/83 45/58/81
f 92/119/64 91/118/66 45/58/81 44/57/79
f 93/120/62 92/119/64 44/57/79 43/56/77
f 94/121/59 93/120/62 43/56/77 42/55/74
f 95/123/60 94/121/59 42/55/74 41/54/73
f 96/124/72 95/122/60 41/62/73 48/61/87
f 89/116/70 96/124/72 48/61/87 47/60/85
f 98/126/84 97/125/86 55/69/101 54/68/99
f 99/127/82 98/126/84 54/68/99 53/67/97
f 100/128/80 99/127/82 53/67/97 52/66/95
f 101/129/78 100/128/80 52/66/95 51/65/93
f 102/130/75 101/129/78 51/65/93 50/64/90
f 103/132/76 102/130/75 50/64/90 49/63/89
f 104/133/88 103/131/76 49/71/89 56/70/103
f 97/125/86 104/133/88 56/70/103 55/69/101
f 106/135/132 105/134/131 29/40/49 28/39/47
f 107/136/133 106/135/132 28/39/47 27/38/45
f 108/137/134 107/136/133 27/38/45 26/37/42
f 109/139/135 108/137/134 26/37/42 25/36/41
f 110/140/136 109/138/135 25/44/41 32/43/55
f 111/141/129 110/140/136 32/43/55 31/42/53
f 112/142/130 111/141/129 31/42/53 30/41/51
f 105/134/131 112/142/130 30/41/51 29/40/49
f 114/144/98 113/143/100 72/97/127 65/89/114
f 115/145/96 114/144/98 65/89/114 66/90/113
f 116/146/94 115/145/96 66/90/113 67/91/117
f 117/147/91 116/146/94 67/91/117 68/92/119
f 118/149/92 117/147/91 68/92/119 69/94/121
f 119/150/104 118/148/92 69/93/121 70/95/123
f 120/151/102 119/150/104 70/95/123 71/96/125
f 113/143/100 120/151/102 71/96/125 72/97/127
f 122/153/128 121/152/126 129/161/137 130/162/138
f 123/154/115 122/153/128 130/162/138 131/163/139
f 124/155/116 123/154/115 131/163/139 132/164/140
f 125/156/118 124/155/116 132/164/140 133/165/141
f 126/157/120 125/156/118 133/165/141 134/166/142
f 127/159/122 126/157/120 134/166/142 135/168/143
f 128/160/124 127/158/122 135/167/143 136/169/144
f 121/152/126 128/160/124 136/169/144 129/161/137
f 130/162/138 129/161/137 137/170/145 138/171/146
f 131/163/139 130/162/138 138/171/146 139/172/147
f 132/164/140 131/163/139 139/172/147 140/173/148
f 133/165/141 132/164/140 140/173/148 141/174/149
f 134/166/142 133/165/141 141/174/149 142/175/150
f 135/168/143 134/166/142 142/175/150 143/177/151
f 136/169/144 135/167/143 143/176/151 144/178/152
f 129/161/137 136/169/144 144/178/152 137/170/145
f 138/171/146 137/170/145 63/78/111 62/77/110
f 139/172/147 138/171/146 62/77/110 61/76/109
f 140/173/148 139/172/147 61/76/109 60/75/108
f 141/174/149 140/173/148 60/75/108 59/74/107
f 142/175/150 141/174/149 59/74/107 58/73/106
f 143/177/151 142/175/150 58/73/106 57/72/105
f 144/178/152 143/176/151 57/80/105 64/79/112
f 137/170/145 144/178/152 64/79/112 63/78/111
f 146/180/10 145/179/12 14/23/27 13/22/25
f 147/181/8 146/180/10 13/22/25 12/21/23
f 148/182/6 147/181/8 12/21/23 11/20/21
f 149/183/3 148/182/6 11/20/21 10/19/18
f 150/185/4 149/183/3 10/19/18 9/18/17
f 151/186/16 150/184/4 9/26/17 16/25/31
f 152/187/14 151/186/16 16/25/31 15/24/29
f 145/179/12 152/187/14 15/24/29 14/23/27
